<svg xmlns="http://www.w3.org/2000/svg" aria-hidden="true" style="position:absolute;width:0;height:0;overflow:hidden">
  <defs>
    <symbol id="icon-eye" viewBox="0 0 32 32">
      <path stroke-linejoin="round" stroke-linecap="round" stroke-miterlimit="4" stroke-width="2.2857"
        d="M5.524 12.571c0 0 3.81-7.619 10.476-7.619s10.476 7.619 10.476 7.619-3.809 7.619-10.476 7.619c-6.667 0-10.476-7.619-10.476-7.619z">
      </path>
      <path stroke-linejoin="round" stroke-linecap="round" stroke-miterlimit="4" stroke-width="2.2857"
        d="M16 15.429c1.578 0 2.857-1.279 2.857-2.857s-1.279-2.857-2.857-2.857c-1.578 0-2.857 1.279-2.857 2.857s1.279 2.857 2.857 2.857z">
      </path>
    </symbol>
    <symbol id="icon-eye-off" viewBox="0 0 32 32">
      <path stroke-linejoin="round" stroke-linecap="round" stroke-miterlimit="4" stroke-width="2.2857"
        d="M21.657 17.086c-1.628 1.241-3.61 1.928-5.657 1.962-6.667 0-10.476-7.619-10.476-7.619 1.185-2.208 2.828-4.137 4.819-5.657M14 4.038c0.656-0.153 1.327-0.23 2-0.229 6.667 0 10.476 7.619 10.476 7.619-0.578 1.082-1.268 2.1-2.057 3.038M18.019 13.448c-0.262 0.281-0.577 0.506-0.927 0.662s-0.729 0.24-1.112 0.247c-0.384 0.007-0.765-0.064-1.12-0.208s-0.679-0.358-0.95-0.629c-0.271-0.271-0.485-0.594-0.629-0.95s-0.214-0.737-0.207-1.12c0.007-0.384 0.091-0.762 0.247-1.113s0.381-0.666 0.662-0.927">
      </path>
      <path stroke-linejoin="round" stroke-linecap="round" stroke-miterlimit="4" stroke-width="2.2857"
        d="M5.524 0.952l20.952 20.952"></path>
    </symbol>
    <symbol id="icon-plus" viewBox="0 0 32 32">
      <path stroke-linejoin="round" stroke-linecap="round" stroke-miterlimit="4" stroke-width="2.4"
        d="M16 6.667v18.667"></path>
      <path stroke-linejoin="round" stroke-linecap="round" stroke-miterlimit="4" stroke-width="2.4"
        d="M6.667 16h18.667"></path>
    </symbol>
    <symbol id="icon-trash" viewBox="0 0 32 32">
      <path stroke-linejoin="round" stroke-linecap="round" stroke-miterlimit="4" stroke-width="2.88"
        d="M12 4h8M13.333 14v6.667M18.667 14v6.667"></path>
      <path stroke-linejoin="round" stroke-linecap="round" stroke-miterlimit="4" stroke-width="2.88"
        d="M4 8h24M25.333 8l-0.935 14.026c-0.14 2.104-0.21 3.156-0.665 3.954-0.4 0.702-1.004 1.267-1.731 1.62-0.826 0.4-1.881 0.4-3.99 0.4h-4.025c-2.109 0-3.163 0-3.99-0.4-0.727-0.352-1.331-0.917-1.731-1.62-0.455-0.798-0.525-1.85-0.665-3.954l-0.935-14.026">
      </path>
    </symbol>
    <symbol id="icon-switch" viewBox="0 0 32 32">
      <path stroke-linejoin="round" stroke-linecap="round" stroke-miterlimit="4" stroke-width="1.6"
        d="M24.533 18.133h-17.067M7.467 18.133l4.267-4.267M7.467 18.133l4.267 4.267"></path>
      <path stroke-linejoin="round" stroke-linecap="round" stroke-miterlimit="4" stroke-width="1.6"
        d="M7.467 7.467h17.067M24.533 7.467l-4.267-4.267M24.533 7.467l-4.267 4.267"></path>
    </symbol>
    <symbol id="icon-switch1" viewBox="0 0 32 32">
      <path stroke-linejoin="round" stroke-linecap="round" stroke-miterlimit="4" stroke-width="2.4"
        d="M5.333 16h21.333M26.667 16l-5.333-5.333M26.667 16l-5.333 5.333"></path>
    </symbol>
    <symbol id="icon-edit" viewBox="0 0 32 32">
      <path stroke-linejoin="round" stroke-linecap="round" stroke-miterlimit="4" stroke-width="2.88"
        d="M3.835 24.154c0.061-0.551 0.092-0.827 0.175-1.085 0.074-0.229 0.179-0.446 0.311-0.647 0.149-0.226 0.345-0.422 0.737-0.814l17.608-17.608c1.473-1.473 3.861-1.473 5.333 0s1.473 3.861 0 5.333l-17.608 17.608c-0.392 0.392-0.588 0.588-0.814 0.737-0.201 0.132-0.418 0.237-0.647 0.311-0.258 0.084-0.533 0.114-1.085 0.175l-4.513 0.501 0.501-4.512z">
      </path>
    </symbol>
    <symbol id="icon-okey" viewBox="0 0 32 32">
      <path fill="#3cbf61" style="fill: var(--color1, #3cbf61)"
        d="M16 29.333c-7.364 0-13.333-5.969-13.333-13.333s5.969-13.333 13.333-13.333c7.364 0 13.333 5.969 13.333 13.333s-5.969 13.333-13.333 13.333zM14.459 21.98l9.427-9.428-1.885-1.885-7.541 7.543-3.772-3.772-1.885 1.885 5.657 5.657z">
      </path>
    </symbol>
    <symbol id="icon-error" viewBox="0 0 32 32">
      <path fill="#d80027" style="fill: var(--color2, #d80027)"
        d="M16 29.333c-7.364 0-13.333-5.969-13.333-13.333s5.969-13.333 13.333-13.333c7.364 0 13.333 5.969 13.333 13.333s-5.969 13.333-13.333 13.333zM14.666 20v2.667h2.667v-2.667h-2.667zM14.666 9.333v8h2.667v-8h-2.667z">
      </path>
    </symbol>
    <symbol id="icon-v" viewBox="0 0 32 32">
      <path d="M16 22.003l-10-10 1.4-1.4 8.6 8.6 8.6-8.6 1.4 1.4-10 10z"></path>
      <path
        d="M16 22.003l-1.697 1.697 1.697 1.697 1.697-1.697-1.697-1.697zM6 12.003l-1.697-1.697-1.697 1.697 1.697 1.697 1.697-1.697zM7.4 10.603l1.697-1.697-1.697-1.697-1.697 1.697 1.697 1.697zM16 19.203l-1.697 1.697 1.697 1.697 1.697-1.697-1.697-1.697zM24.6 10.603l1.697-1.697-1.697-1.697-1.697 1.697 1.697 1.697zM26 12.003l1.697 1.697 1.697-1.697-1.697-1.697-1.697 1.697zM17.697 20.306l-10-10-3.394 3.394 10 10 3.394-3.394zM7.697 13.7l1.4-1.4-3.394-3.394-1.4 1.4 3.394 3.394zM5.703 12.3l8.6 8.6 3.394-3.394-8.6-8.6-3.394 3.394zM17.697 20.9l8.6-8.6-3.394-3.394-8.6 8.6 3.394 3.394zM22.903 12.3l1.4 1.4 3.394-3.394-1.4-1.4-3.394 3.394zM24.303 10.306l-10 10 3.394 3.394 10-10-3.394-3.394z">
      </path>
    </symbol>
    <symbol id="icon-search" viewBox="0 0 32 32">
      <path stroke-linejoin="round" stroke-linecap="round" stroke-miterlimit="4" stroke-width="2.4"
        d="M14.667 25.333c5.891 0 10.667-4.776 10.667-10.667s-4.776-10.667-10.667-10.667c-5.891 0-10.667 4.776-10.667 10.667s4.776 10.667 10.667 10.667z">
      </path>
      <path stroke-linejoin="round" stroke-linecap="round" stroke-miterlimit="4" stroke-width="2.4" d="M28 28l-5.8-5.8">
      </path>
    </symbol>
    <symbol id="icon-plus" viewBox="0 0 32 32">
      <path stroke-linejoin="round" stroke-linecap="round" stroke-miterlimit="4" stroke-width="2.4"
        d="M16 6.667v18.667"></path>
      <path stroke-linejoin="round" stroke-linecap="round" stroke-miterlimit="4" stroke-width="2.4"
        d="M6.667 16h18.667"></path>
    </symbol>
    <symbol id="icon-arrow-right" viewBox="0 0 32 32">
      <path stroke-linejoin="round" stroke-linecap="round" stroke-miterlimit="4" stroke-width="2.1333"
        d="M6.578 12h17.067"></path>
      <path stroke-linejoin="round" stroke-linecap="round" stroke-miterlimit="4" stroke-width="2.1333"
        d="M18.133 5.778l6.222 6.222-6.222 6.222"></path>
    </symbol>
    <symbol id="icon-user" viewBox="0 0 32 32">
      <path
        d="M16 5.333c1.415 0 2.771 0.562 3.771 1.562s1.562 2.357 1.562 3.771-0.562 2.771-1.562 3.771c-1 1-2.357 1.562-3.771 1.562s-2.771-0.562-3.771-1.562c-1-1-1.562-2.357-1.562-3.771s0.562-2.771 1.562-3.771c1-1 2.357-1.562 3.771-1.562zM16 26.667c0 0 10.667 0 10.667-2.667 0-3.2-5.2-6.667-10.667-6.667s-10.667 3.467-10.667 6.667c0 2.667 10.667 2.667 10.667 2.667z">
      </path>
    </symbol>
    <symbol id="icon-nav" viewBox="0 0 46 32">
      <path stroke-linejoin="miter" stroke-linecap="round" stroke-miterlimit="4" stroke-width="3.4286"
        d="M8.671 5.074h35.329"></path>
      <path stroke-linejoin="miter" stroke-linecap="round" stroke-miterlimit="4" stroke-width="3.4286"
        d="M8.671 24.468h35.329"></path>
      <path stroke-linejoin="miter" stroke-linecap="round" stroke-miterlimit="4" stroke-width="3.4286"
        d="M19.603 14.771h24.398"></path>
    </symbol>
    <symbol id="icon-ua" viewBox="0 0 32 32">
      <path fill="#ffda44" style="fill: var(--color1, #ffda44)"
        d="M16 32c8.837 0 16-7.163 16-16s-7.163-16-16-16c-8.837 0-16 7.163-16 16s7.163 16 16 16z"></path>
      <path fill="#338af3" style="fill: var(--color2, #338af3)" d="M0 16c0-8.836 7.163-16 16-16s16 7.163 16 16z"></path>
    </symbol>
    <symbol id="icon-uk" viewBox="0 0 32 32">
      <path fill="#f0f0f0" style="fill: var(--color3, #f0f0f0)"
        d="M16 25.6c7.069 0 12.8-5.731 12.8-12.8s-5.731-12.8-12.8-12.8-12.8 5.731-12.8 12.8c0 7.069 5.731 12.8 12.8 12.8z">
      </path>
      <path fill="#0052b4" style="fill: var(--color4, #0052b4)"
        d="M5.846 5.007c-1.005 1.308-1.764 2.816-2.205 4.454h6.659l-4.454-4.454z"></path>
      <path fill="#0052b4" style="fill: var(--color4, #0052b4)"
        d="M28.359 9.461c-0.441-1.638-1.2-3.146-2.205-4.454l-4.454 4.454h6.659z"></path>
      <path fill="#0052b4" style="fill: var(--color4, #0052b4)"
        d="M3.641 16.139c0.442 1.638 1.2 3.146 2.205 4.454l4.454-4.454h-6.659z"></path>
      <path fill="#0052b4" style="fill: var(--color4, #0052b4)"
        d="M23.793 2.646c-1.308-1.005-2.816-1.764-4.454-2.205v6.659l4.454-4.454z"></path>
      <path fill="#0052b4" style="fill: var(--color4, #0052b4)"
        d="M8.207 22.954c1.308 1.005 2.816 1.764 4.454 2.205v-6.659l-4.454 4.454z"></path>
      <path fill="#0052b4" style="fill: var(--color4, #0052b4)"
        d="M12.661 0.441c-1.638 0.442-3.146 1.2-4.454 2.205l4.454 4.454v-6.659z"></path>
      <path fill="#0052b4" style="fill: var(--color4, #0052b4)"
        d="M19.339 25.159c1.638-0.442 3.146-1.2 4.454-2.205l-4.454-4.454v6.659z"></path>
      <path fill="#0052b4" style="fill: var(--color4, #0052b4)"
        d="M21.7 16.139l4.454 4.454c1.005-1.308 1.764-2.816 2.205-4.454h-6.659z"></path>
      <path fill="#d80027" style="fill: var(--color5, #d80027)"
        d="M28.692 11.13h-11.022v-11.022c-0.547-0.071-1.104-0.108-1.67-0.108s-1.123 0.037-1.67 0.108v11.022h-11.022c-0.071 0.547-0.108 1.104-0.108 1.67s0.037 1.123 0.108 1.67h11.022v11.022c0.547 0.071 1.104 0.108 1.67 0.108s1.123-0.037 1.67-0.108v-11.022h11.022c0.071-0.547 0.108-1.104 0.108-1.67s-0.037-1.123-0.108-1.67z">
      </path>
      <path fill="#d80027" style="fill: var(--color5, #d80027)"
        d="M19.339 16.139l5.712 5.712c0.263-0.263 0.513-0.537 0.752-0.822l-4.89-4.89h-1.574z"></path>
      <path fill="#d80027" style="fill: var(--color5, #d80027)"
        d="M12.661 16.139h-0l-5.712 5.712c0.263 0.263 0.537 0.513 0.822 0.752l4.89-4.89v-1.574z"></path>
      <path fill="#d80027" style="fill: var(--color5, #d80027)"
        d="M12.661 9.461v-0l-5.712-5.712c-0.263 0.263-0.513 0.537-0.752 0.822l4.89 4.89 1.574 0z"></path>
      <path fill="#d80027" style="fill: var(--color5, #d80027)"
        d="M19.339 9.461l5.712-5.712c-0.263-0.263-0.537-0.513-0.822-0.752l-4.89 4.89v1.574z"></path>
    </symbol>
    <symbol id="icon-Dot" viewBox="0 0 32 32">
      <path
        d="M5.593 18.332c-2.034 0-3.652-1.525-3.652-3.42v-0.231c0-1.849 1.618-3.374 3.652-3.374 1.988 0 3.698 1.525 3.698 3.374v0.231c0 1.895-1.71 3.42-3.698 3.42zM16.787 18.332c-2.034 0-3.652-1.525-3.652-3.42v-0.231c0-1.849 1.618-3.374 3.652-3.374 1.988 0 3.698 1.525 3.698 3.374v0.231c0 1.895-1.71 3.42-3.698 3.42zM27.982 18.332c-2.034 0-3.652-1.525-3.652-3.42v-0.231c0-1.849 1.618-3.374 3.652-3.374 1.988 0 3.698 1.525 3.698 3.374v0.231c0 1.895-1.71 3.42-3.698 3.42z">
      </path>
    </symbol>
    <symbol id="icon-First" viewBox="0 0 32 32">
      <path d="M23.453 24l1.88-1.88-6.107-6.12 6.107-6.12-1.88-1.88-8 8 8 8z"></path>
      <path d="M14.667 24l1.88-1.88-6.107-6.12 6.107-6.12-1.88-1.88-8 8 8 8z"></path>
    </symbol>
    <symbol id="icon-Prev" viewBox="0 0 32 32">
      <path d="M20.12 24l1.88-1.88-6.107-6.12 6.107-6.12-1.88-1.88-8 8 8 8z"></path>
    </symbol>
    <symbol id="icon-Next" viewBox="0 0 32 32">
      <path d="M13.88 8l-1.88 1.88 6.107 6.12-6.107 6.12 1.88 1.88 8-8-8-8z"></path>
    </symbol>
    <symbol id="icon-Last" viewBox="0 0 32 32">
      <path d="M8.546 8l-1.88 1.88 6.107 6.12-6.107 6.12 1.88 1.88 8-8-8-8z"></path>
      <path d="M17.333 8l-1.88 1.88 6.107 6.12-6.107 6.12 1.88 1.88 8-8-8-8z"></path>
    </symbol>
  </defs>
</svg>