<svg xmlns="http://www.w3.org/2000/svg" aria-hidden="true" style="position:absolute;width:0;height:0;overflow:hidden">
  <defs>
    <symbol id="icon-eye" viewBox="0 0 32 32">
      <path stroke-linejoin="round" stroke-linecap="round" stroke-miterlimit="4" stroke-width="2.2857"
        d="M5.524 12.571c0 0 3.81-7.619 10.476-7.619s10.476 7.619 10.476 7.619-3.809 7.619-10.476 7.619c-6.667 0-10.476-7.619-10.476-7.619z">
      </path>
      <path stroke-linejoin="round" stroke-linecap="round" stroke-miterlimit="4" stroke-width="2.2857"
        d="M16 15.429c1.578 0 2.857-1.279 2.857-2.857s-1.279-2.857-2.857-2.857c-1.578 0-2.857 1.279-2.857 2.857s1.279 2.857 2.857 2.857z">
      </path>
    </symbol>
    <symbol id="icon-eye-off" viewBox="0 0 32 32">
      <path stroke-linejoin="round" stroke-linecap="round" stroke-miterlimit="4" stroke-width="2.2857"
        d="M21.657 17.086c-1.628 1.241-3.61 1.928-5.657 1.962-6.667 0-10.476-7.619-10.476-7.619 1.185-2.208 2.828-4.137 4.819-5.657M14 4.038c0.656-0.153 1.327-0.23 2-0.229 6.667 0 10.476 7.619 10.476 7.619-0.578 1.082-1.268 2.1-2.057 3.038M18.019 13.448c-0.262 0.281-0.577 0.506-0.927 0.662s-0.729 0.24-1.112 0.247c-0.384 0.007-0.765-0.064-1.12-0.208s-0.679-0.358-0.95-0.629c-0.271-0.271-0.485-0.594-0.629-0.95s-0.214-0.737-0.207-1.12c0.007-0.384 0.091-0.762 0.247-1.113s0.381-0.666 0.662-0.927">
      </path>
      <path stroke-linejoin="round" stroke-linecap="round" stroke-miterlimit="4" stroke-width="2.2857"
        d="M5.524 0.952l20.952 20.952"></path>
    </symbol>
    <symbol id="icon-plus" viewBox="0 0 32 32">
      <path stroke-linejoin="round" stroke-linecap="round" stroke-miterlimit="4" stroke-width="2.4"
        d="M16 6.667v18.667"></path>
      <path stroke-linejoin="round" stroke-linecap="round" stroke-miterlimit="4" stroke-width="2.4"
        d="M6.667 16h18.667"></path>
    </symbol>
    <symbol id="icon-trash" viewBox="0 0 32 32">
      <path stroke-linejoin="round" stroke-linecap="round" stroke-miterlimit="4" stroke-width="2.88"
        d="M12 4h8M13.333 14v6.667M18.667 14v6.667"></path>
      <path stroke-linejoin="round" stroke-linecap="round" stroke-miterlimit="4" stroke-width="2.88"
        d="M4 8h24M25.333 8l-0.935 14.026c-0.14 2.104-0.21 3.156-0.665 3.954-0.4 0.702-1.004 1.267-1.731 1.62-0.826 0.4-1.881 0.4-3.99 0.4h-4.025c-2.109 0-3.163 0-3.99-0.4-0.727-0.352-1.331-0.917-1.731-1.62-0.455-0.798-0.525-1.85-0.665-3.954l-0.935-14.026">
      </path>
    </symbol>
    <symbol id="icon-switch" viewBox="0 0 32 32">
      <path stroke-linejoin="round" stroke-linecap="round" stroke-miterlimit="4" stroke-width="1.6"
        d="M24.533 18.133h-17.067M7.467 18.133l4.267-4.267M7.467 18.133l4.267 4.267"></path>
      <path stroke-linejoin="round" stroke-linecap="round" stroke-miterlimit="4" stroke-width="1.6"
        d="M7.467 7.467h17.067M24.533 7.467l-4.267-4.267M24.533 7.467l-4.267 4.267"></path>
    </symbol>
    <symbol id="icon-switch1" viewBox="0 0 32 32">
      <path stroke-linejoin="round" stroke-linecap="round" stroke-miterlimit="4" stroke-width="2.4"
        d="M5.333 16h21.333M26.667 16l-5.333-5.333M26.667 16l-5.333 5.333"></path>
    </symbol>
    <symbol id="icon-edit" viewBox="0 0 32 32">
      <path stroke-linejoin="round" stroke-linecap="round" stroke-miterlimit="4" stroke-width="2.88"
        d="M3.835 24.154c0.061-0.551 0.092-0.827 0.175-1.085 0.074-0.229 0.179-0.446 0.311-0.647 0.149-0.226 0.345-0.422 0.737-0.814l17.608-17.608c1.473-1.473 3.861-1.473 5.333 0s1.473 3.861 0 5.333l-17.608 17.608c-0.392 0.392-0.588 0.588-0.814 0.737-0.201 0.132-0.418 0.237-0.647 0.311-0.258 0.084-0.533 0.114-1.085 0.175l-4.513 0.501 0.501-4.512z">
      </path>
    </symbol>
    <symbol id="icon-okey" viewBox="0 0 32 32">
      <path fill="#3cbf61" style="fill: var(--color1, #3cbf61)"
        d="M16 29.333c-7.364 0-13.333-5.969-13.333-13.333s5.969-13.333 13.333-13.333c7.364 0 13.333 5.969 13.333 13.333s-5.969 13.333-13.333 13.333zM14.459 21.98l9.427-9.428-1.885-1.885-7.541 7.543-3.772-3.772-1.885 1.885 5.657 5.657z">
      </path>
    </symbol>
    <symbol id="icon-error" viewBox="0 0 32 32">
      <path fill="#d80027" style="fill: var(--color2, #d80027)"
        d="M16 29.333c-7.364 0-13.333-5.969-13.333-13.333s5.969-13.333 13.333-13.333c7.364 0 13.333 5.969 13.333 13.333s-5.969 13.333-13.333 13.333zM14.666 20v2.667h2.667v-2.667h-2.667zM14.666 9.333v8h2.667v-8h-2.667z">
      </path>
    </symbol>
    <symbol id="icon-v" viewBox="0 0 32 32">
      <path d="M16 22.003l-10-10 1.4-1.4 8.6 8.6 8.6-8.6 1.4 1.4-10 10z"></path>
      <path
        d="M16 22.003l-1.697 1.697 1.697 1.697 1.697-1.697-1.697-1.697zM6 12.003l-1.697-1.697-1.697 1.697 1.697 1.697 1.697-1.697zM7.4 10.603l1.697-1.697-1.697-1.697-1.697 1.697 1.697 1.697zM16 19.203l-1.697 1.697 1.697 1.697 1.697-1.697-1.697-1.697zM24.6 10.603l1.697-1.697-1.697-1.697-1.697 1.697 1.697 1.697zM26 12.003l1.697 1.697 1.697-1.697-1.697-1.697-1.697 1.697zM17.697 20.306l-10-10-3.394 3.394 10 10 3.394-3.394zM7.697 13.7l1.4-1.4-3.394-3.394-1.4 1.4 3.394 3.394zM5.703 12.3l8.6 8.6 3.394-3.394-8.6-8.6-3.394 3.394zM17.697 20.9l8.6-8.6-3.394-3.394-8.6 8.6 3.394 3.394zM22.903 12.3l1.4 1.4 3.394-3.394-1.4-1.4-3.394 3.394zM24.303 10.306l-10 10 3.394 3.394 10-10-3.394-3.394z">
      </path>
    </symbol>
    <symbol id="icon-search" viewBox="0 0 32 32">
      <path stroke-linejoin="round" stroke-linecap="round" stroke-miterlimit="4" stroke-width="2.4"
        d="M14.667 25.333c5.891 0 10.667-4.776 10.667-10.667s-4.776-10.667-10.667-10.667c-5.891 0-10.667 4.776-10.667 10.667s4.776 10.667 10.667 10.667z">
      </path>
      <path stroke-linejoin="round" stroke-linecap="round" stroke-miterlimit="4" stroke-width="2.4" d="M28 28l-5.8-5.8">
      </path>
    </symbol>
    <symbol id="icon-plus" viewBox="0 0 32 32">
      <path stroke-linejoin="round" stroke-linecap="round" stroke-miterlimit="4" stroke-width="2.4"
        d="M16 6.667v18.667"></path>
      <path stroke-linejoin="round" stroke-linecap="round" stroke-miterlimit="4" stroke-width="2.4"
        d="M6.667 16h18.667"></path>
    </symbol>
    <symbol id="icon-arrow-right" viewBox="0 0 32 32">
      <path stroke-linejoin="round" stroke-linecap="round" stroke-miterlimit="4" stroke-width="2.1333"
        d="M6.578 12h17.067"></path>
      <path stroke-linejoin="round" stroke-linecap="round" stroke-miterlimit="4" stroke-width="2.1333"
        d="M18.133 5.778l6.222 6.222-6.222 6.222"></path>
    </symbol>
    <symbol id="icon-user" viewBox="0 0 32 32">
      <path
        d="M16 5.333c1.415 0 2.771 0.562 3.771 1.562s1.562 2.357 1.562 3.771-0.562 2.771-1.562 3.771c-1 1-2.357 1.562-3.771 1.562s-2.771-0.562-3.771-1.562c-1-1-1.562-2.357-1.562-3.771s0.562-2.771 1.562-3.771c1-1 2.357-1.562 3.771-1.562zM16 26.667c0 0 10.667 0 10.667-2.667 0-3.2-5.2-6.667-10.667-6.667s-10.667 3.467-10.667 6.667c0 2.667 10.667 2.667 10.667 2.667z">
      </path>
    </symbol>
    <symbol id="icon-nav" viewBox="0 0 46 32">
      <path stroke-linejoin="miter" stroke-linecap="round" stroke-miterlimit="4" stroke-width="3.4286"
        d="M8.671 5.074h35.329"></path>
      <path stroke-linejoin="miter" stroke-linecap="round" stroke-miterlimit="4" stroke-width="3.4286"
        d="M8.671 24.468h35.329"></path>
      <path stroke-linejoin="miter" stroke-linecap="round" stroke-miterlimit="4" stroke-width="3.4286"
        d="M19.603 14.771h24.398"></path>
    </symbol>
  </defs>
</svg>